<svg height="512pt" viewBox="0 0 512 512" width="512pt" xmlns="http://www.w3.org/2000/svg" xmlns:xlink="http://www.w3.org/1999/xlink"><linearGradient id="a" gradientUnits="userSpaceOnUse" x1="0" x2="512" y1="256" y2="256"><stop offset="0" stop-color="#00f38d"/><stop offset="1" stop-color="#009eff"/></linearGradient><path d="m512 256c0 141.386719-114.613281 256-256 256s-256-114.613281-256-256 114.613281-256 256-256 256 114.613281 256 256zm0 0" fill="url(#a)"/><g fill="#fff"><path d="m418.019531 115.195312-21.214843-21.214843-31.28125 31.285156-31.285157-31.285156-21.210937 21.214843 31.28125 31.28125-31.28125 31.285157 21.210937 21.210937 31.285157-31.28125 31.28125 31.28125 21.214843-21.210937-31.285156-31.285157zm0 0"/><path d="m384.171875 220.933594c3.339844 11.738281 5.125 24.121094 5.125 36.914062 0 33.007813-11.902344 63.285156-31.628906 86.78125-7.605469-31.21875-28.996094-57.097656-57.339844-70.785156 11.414063-11.664062 18.472656-27.613281 18.472656-45.183594 0-35.644531-29-64.644531-64.648437-64.644531-35.644532 0-64.644532 29-64.644532 64.644531 0 17.570313 7.054688 33.519532 18.472657 45.183594-28.34375 13.6875-49.734375 39.566406-57.339844 70.785156-19.730469-23.496094-31.628906-53.773437-31.628906-86.78125 0-74.519531 60.625-135.144531 135.144531-135.144531 13.019531 0 25.617188 1.855469 37.539062 5.308594v-25.925781c-12.152343-2.90625-24.730468-4.410157-37.539062-4.410157-42.785156 0-83.007812 16.660157-113.257812 46.914063-30.253907 30.25-46.914063 70.472656-46.914063 113.257812 0 42.78125 16.660156 83.003906 46.914063 113.257813 30.25 30.253906 70.472656 46.914062 113.257812 46.914062 42.78125 0 83.003906-16.660156 113.257812-46.914062 30.253907-30.253907 46.914063-70.472657 46.914063-113.257813 0-12.589844-1.457031-24.957031-4.261719-36.914062zm-164.664063 7.726562c0-19.105468 15.542969-34.644531 34.644532-34.644531 19.105468 0 34.648437 15.539063 34.648437 34.644531 0 19.105469-15.542969 34.648438-34.648437 34.648438-19.101563 0-34.644532-15.542969-34.644532-34.648438zm-41.875 140.519532c.359376-41.898438 34.542969-75.875 76.519532-75.875 41.980468 0 76.160156 33.976562 76.523437 75.875-21.773437 15.007812-48.136719 23.8125-76.523437 23.8125-28.382813 0-54.746094-8.804688-76.519532-23.8125zm0 0"/></g></svg>